<svg width="1024" height="1024" viewBox="0 0 1024 1024" fill="none" xmlns="http://www.w3.org/2000/svg">
<rect width="1024" height="1024" rx="245" fill="white"/>
<path fill-rule="evenodd" clip-rule="evenodd" d="M782.425 630.303C757.048 577.382 384.685 282.128 240.311 167.652L235.706 164C233.37 168.071 237.212 215.128 241.635 241.411L241.966 243.377C247.357 275.455 252.282 304.757 275.012 345.715C295.654 382.91 518.371 533.771 631.455 602.651L339.445 455.314C348.861 493.983 373.7 580.681 397.726 618.124C421.751 655.568 564.515 720.497 630.643 743.74L631.483 744.469C636.101 748.478 636.821 755.369 633.131 760.242L475.588 713.763C491.716 751.752 538.441 832.725 596.322 852.714C654.204 872.703 731.52 846.862 762.943 831.444C756.602 800.326 766.198 765.835 775.482 732.462C785.948 694.845 796.018 658.648 782.425 630.303ZM603.492 500.31L272.444 222.724C270.69 228.927 268.056 235.124 270.678 254.126C273.84 277.036 279.227 276.997 281.753 282.036L603.492 500.31ZM606.648 612.834L383.191 501.824C380.273 503.763 374.959 509.56 377.057 517.236C379.154 524.911 388.429 533.612 392.804 537.003L606.648 612.834Z" fill="#0B91DD"/>
</svg>
