<svg width="781" height="274" viewBox="0 0 781 274" fill="none" xmlns="http://www.w3.org/2000/svg">
<path fill-rule="evenodd" clip-rule="evenodd" d="M215.287 183.573C205.307 162.74 58.8668 46.5045 2.08883 1.43755L0.277748 0C-0.64102 1.60278 0.870097 20.1278 2.60945 30.4751L2.73941 31.2488C4.85969 43.8776 6.7964 55.4129 15.7355 71.5371C23.8534 86.18 111.442 145.571 155.914 172.687L41.0753 114.684C44.7785 129.907 54.5469 164.038 63.9955 178.779C73.4441 193.519 129.589 219.081 155.595 228.231L155.925 228.518C157.742 230.096 158.025 232.809 156.574 234.728L94.6164 216.43C100.959 231.385 119.335 263.263 142.098 271.132C164.861 279.001 195.267 268.828 207.625 262.758C205.131 250.508 208.905 236.929 212.556 223.791C216.672 208.982 220.633 194.732 215.287 183.573ZM144.917 132.398L14.7256 23.1182C14.036 25.5603 13 28 14.0313 35.4807C15.2747 44.5 17.3931 44.4844 18.3867 46.4683L144.917 132.398ZM146.159 176.696L58.2795 132.994C57.1316 133.757 55.0421 136.039 55.8669 139.061C56.6917 142.083 60.3392 145.508 62.0598 146.843L146.159 176.696ZM328.742 269.544V174.511H302.609V209.579H270.714V174.511H244.581V269.544H270.714V232.334H302.609V269.544H328.742ZM412.904 269.544V246.789H371.225V231.798H405.801V210.65H371.225V197.265H411.697V174.511H345.092V269.544H412.904ZM425.056 174.511V269.544H451.189V240.365H460.972L477.724 269.544H507.207L487.105 234.609C491.393 231.575 494.744 227.694 497.156 222.964C499.568 218.146 500.775 212.97 500.775 207.438C500.775 203.422 499.97 199.451 498.362 195.525C496.754 191.509 494.52 187.985 491.661 184.951C488.892 181.828 485.541 179.329 481.61 177.455C477.679 175.492 473.391 174.511 468.745 174.511H425.056ZM467.673 217.61H451.189V197.265H467.003C468.611 197.265 470.219 198.157 471.827 199.942C473.435 201.637 474.24 204.136 474.24 207.438C474.24 210.65 473.525 213.149 472.095 214.933C470.755 216.718 469.281 217.61 467.673 217.61ZM587.456 219.484V269.544H613.589V174.511H585.178L564.539 219.216L544.035 174.511H515.49V269.544H541.623V219.484L557.571 254.687H571.508L587.456 219.484ZM697.686 269.544V246.789H656.007V231.798H690.583V210.65H656.007V197.265H696.479V174.511H629.874V269.544H697.686ZM759.156 201.281C762.014 202.53 764.784 203.957 767.464 205.564L778.722 184.014C776.578 182.943 774.165 181.828 771.485 180.668C768.805 179.418 765.901 178.303 762.774 177.321C759.736 176.251 756.565 175.403 753.259 174.778C749.953 174.064 746.558 173.707 743.074 173.707C738.338 173.707 733.827 174.421 729.538 175.849C725.339 177.188 721.587 179.195 718.281 181.872C714.975 184.549 712.34 187.896 710.374 191.911C708.498 195.927 707.56 200.567 707.56 205.831C707.56 209.311 708.006 212.39 708.9 215.067C709.883 217.744 711.357 220.153 713.322 222.295C715.288 224.347 717.79 226.221 720.827 227.917C723.865 229.523 727.483 231.04 731.682 232.467C734.541 233.449 737.222 234.297 739.723 235.011C742.314 235.724 744.593 236.438 746.558 237.152C748.524 237.866 750.042 238.714 751.115 239.695C752.276 240.588 752.857 241.703 752.857 243.042C752.857 244.291 752.276 245.317 751.115 246.12C750.042 246.834 748.077 247.191 745.218 247.191C741.466 247.191 737.758 246.656 734.095 245.585C730.521 244.514 727.305 243.309 724.446 241.971C721.051 240.454 717.79 238.714 714.663 236.751L703.405 259.639C706.264 261.334 709.347 262.851 712.652 264.19C716.047 265.528 719.532 266.688 723.105 267.67C726.769 268.651 730.432 269.41 734.095 269.945C737.758 270.481 741.332 270.749 744.816 270.749C749.194 270.749 753.527 270.258 757.815 269.276C762.193 268.205 766.08 266.51 769.475 264.19C772.959 261.87 775.729 258.791 777.784 254.954C779.928 251.028 781 246.209 781 240.498C781 236.037 780.33 232.244 778.99 229.121C777.65 225.998 775.729 223.366 773.227 221.224C770.725 218.993 767.688 217.075 764.114 215.469C760.63 213.862 756.699 212.39 752.321 211.052C749.551 210.159 747.049 209.401 744.816 208.776C742.672 208.151 740.84 207.527 739.321 206.902C737.802 206.188 736.641 205.43 735.837 204.627C735.033 203.824 734.631 202.797 734.631 201.548C734.631 199.853 735.301 198.648 736.641 197.934C738.071 197.22 739.947 196.863 742.27 196.863C745.129 196.863 748.032 197.354 750.981 198.336C754.018 199.228 756.743 200.21 759.156 201.281Z" fill="#0B91DD"/>
</svg>
